# xmcd
#
# Track frame offsets:
#	150
#	16025
#	30970
#	48407
#	63830
#	84042
#	101835
#	116147
#	136142
#	150303
#	166180
#	183617
#	199921
#	217481
#	233806
#	246651
#
# Disc length: 3609 seconds
#
# Revision: 1
# Processed by: cddbd v1.4PL0 Copyright (c) Steve Scherf et al.
# Submitted via: audiograbber 1.80.04
#
DISCID=d30e1710
DTITLE=PEPPINO GAGLIARDI - FOEVER ORIGINALE
DYEAR=1900
DGENRE=POP
TTITLE0=ACCANTO A CHI
TTITLE1=CIAO
TTITLE2=LE MIE IMMAGINI
TTITLE3=PASSERA'
TTITLE4=TI AMO COSI'
TTITLE5=SIGNORINELLA
TTITLE6=DOPO
TTITLE7=A SOFRIRE SARO' IO
TTITLE8=SETTEMBRE
TTITLE9=COME LE VIOLE 
TTITLE10=SEMPRE SEMPRE
TTITLE11=LA BALLATA DELL'UOMO IN PIU'
TTITLE12=COME UN RAGAZZINO
TTITLE13=GOCCE DI MARE
TTITLE14=VISIONE 
TTITLE15=RICORDANDO ANDERSEN 
EXTD=
EXTT0=\n
EXTT1=
EXTT2=
EXTT3=
EXTT4=
EXTT5=
EXTT6=
EXTT7=
EXTT8=
EXTT9=
EXTT10=
EXTT11=
EXTT12=
EXTT13=
EXTT14=
EXTT15=
PLAYORDER=
